<?xml version="1.0" encoding="iso-8859-1"?>
<!-- Generator: Adobe Illustrator 19.0.0, SVG Export Plug-In . SVG Version: 6.00 Build 0)  -->
<svg version="1.1" id="Capa_1" xmlns="http://www.w3.org/2000/svg" xmlns:xlink="http://www.w3.org/1999/xlink" x="0px" y="0px"
	 viewBox="0 0 496 496" style="enable-background:new 0 0 496 496;" xml:space="preserve">
<g>
	<g>
		<g>
			<rect x="32" y="144" width="192" height="16"/>
			<rect x="32" y="240" width="192" height="16"/>
			<rect x="32" y="336" width="192" height="16"/>
			<path d="M486.624,315.312L324.688,153.376c-5.988-6.025-14.138-9.401-22.632-9.376h-4.112
				c-8.494-0.025-16.644,3.351-22.632,9.376L256,172.688V128c0-17.673-14.327-32-32-32H32c-17.673,0-32,14.327-32,32v48
				c0.03,9.225,4.064,17.982,11.056,24C4.064,206.018,0.03,214.775,0,224v48c0.03,9.225,4.064,17.982,11.056,24
				C4.064,302.018,0.03,310.775,0,320v48c0,17.673,14.327,32,32,32h192c17.673,0,32-14.327,32-32v-48
				c-0.03-9.225-4.064-17.982-11.056-24c6.992-6.018,11.026-14.775,11.056-24v-36.688l155.312,155.312
				c5.988,6.025,14.138,9.401,22.632,9.376h4.112c8.494,0.025,16.644-3.351,22.632-9.376l25.936-25.936
				c6.025-5.988,9.401-14.138,9.376-22.632v-4.112C496.025,329.45,492.649,321.3,486.624,315.312z M240,368c0,8.837-7.163,16-16,16
				h-12.688l10.344-10.344l-11.312-11.312L188.688,384h-17.376l10.344-10.344l-11.312-11.312L148.688,384h-17.376l10.344-10.344
				l-11.312-11.312L108.688,384H91.312l10.344-10.344l-11.312-11.312L68.688,384H51.312l10.344-10.344l-11.312-11.312
				l-21.352,21.352C21.459,382.254,16.009,375.67,16,368v-48c0.009-7.67,5.459-14.254,12.992-15.696l21.352,21.352l11.312-11.312
				L51.312,304h17.376l21.656,21.656l11.312-11.312L91.312,304h17.376l21.656,21.656l11.312-11.312L131.312,304h17.376
				l21.656,21.656l11.312-11.312L171.312,304h17.376l21.656,21.656l11.312-11.312L211.312,304H224c8.837,0,16,7.163,16,16V368z
				 M240,272c0,8.837-7.163,16-16,16h-12.688l10.344-10.344l-11.312-11.312L188.688,288h-17.376l10.344-10.344l-11.312-11.312
				L148.688,288h-17.376l10.344-10.344l-11.312-11.312L108.688,288H91.312l10.344-10.344l-11.312-11.312L68.688,288H51.312
				l10.344-10.344l-11.312-11.312l-21.352,21.352C21.459,286.254,16.009,279.67,16,272v-48c0.009-7.67,5.459-14.254,12.992-15.696
				l21.352,21.352l11.312-11.312L51.312,208h17.376l21.656,21.656l11.312-11.312L91.312,208h17.376l21.656,21.656l11.312-11.312
				L131.312,208h17.376l21.656,21.656l11.312-11.312L171.312,208h17.376l21.656,21.656l11.312-11.312L211.312,208H224
				c8.837,0,16,7.163,16,16V272z M240,176c0,8.837-7.163,16-16,16h-12.688l10.344-10.344l-11.312-11.312L188.688,192h-17.376
				l10.344-10.344l-11.312-11.312L148.688,192h-17.376l10.344-10.344l-11.312-11.312L108.688,192H91.312l10.344-10.344
				l-11.312-11.312L68.688,192H51.312l10.344-10.344l-11.312-11.312l-21.352,21.352C21.459,190.254,16.009,183.67,16,176v-48
				c0.009-7.67,5.459-14.254,12.992-15.696l21.352,21.352l11.312-11.312L51.312,112h17.376l21.656,21.656l11.312-11.312L91.312,112
				h17.376l21.656,21.656l11.312-11.312L131.312,112h17.376l21.656,21.656l11.312-11.312L171.312,112h17.376l21.656,21.656
				l11.312-11.312L211.312,112H224c8.837,0,16,7.163,16,16V176z M480,342.056c0.013,4.248-1.675,8.325-4.688,11.32l-25.936,25.936
				c-2.995,3.013-7.072,4.701-11.32,4.688h-4.112c-4.248,0.013-8.325-1.675-11.32-4.688L403.312,360H416v-16h-28.688l-16-16H384v-16
				h-28.688l-16-16H352v-16h-28.688l-16-16H320v-16h-28.688l-16-16H288v-16h-28.44c-2.29-2.809-3.547-6.32-3.56-9.944v-4.112
				c-0.013-4.248,1.675-8.325,4.688-11.32l25.936-25.936c2.995-3.013,7.072-4.701,11.32-4.688h4.112
				c3.624,0.013,7.135,1.27,9.944,3.56V192h16v-12.688l16,16V224h16v-12.688l16,16V256h16v-12.688l16,16V288h16v-12.688l16,16V320
				h16v-12.688l19.312,19.312c3.013,2.995,4.701,7.072,4.688,11.32V342.056z"/>
			
				<rect x="254.868" y="263.986" transform="matrix(-0.7071 -0.7071 0.7071 -0.7071 435.873 724.5168)" width="226.241" height="16"/>
		</g>
	</g>
</g>
<g>
</g>
<g>
</g>
<g>
</g>
<g>
</g>
<g>
</g>
<g>
</g>
<g>
</g>
<g>
</g>
<g>
</g>
<g>
</g>
<g>
</g>
<g>
</g>
<g>
</g>
<g>
</g>
<g>
</g>
</svg>
