<?xml version="1.0" encoding="iso-8859-1"?>
<!-- Generator: Adobe Illustrator 19.0.0, SVG Export Plug-In . SVG Version: 6.00 Build 0)  -->
<svg version="1.1" id="Capa_1" xmlns="http://www.w3.org/2000/svg" xmlns:xlink="http://www.w3.org/1999/xlink" x="0px" y="0px"
	 viewBox="0 0 495.997 495.997" style="enable-background:new 0 0 495.997 495.997;" xml:space="preserve">
<g>
	<g>
		<g>
			<path d="M381.654,242.342l-22.344-22.344l14.344-14.344c3.123-3.124,3.123-8.188,0-11.312l-40-40
				c-3.124-3.123-8.188-3.123-11.312,0l-42.344,42.344L135.31,51.998l14.344-14.344l-11.312-11.312l-14.344,14.344l-22.344-22.344
				c-3.124-3.123-8.188-3.123-11.312,0l-2.344,2.344L69.654,2.342c-3.124-3.123-8.188-3.123-11.312,0l-40,40
				c-3.123,3.124-3.123,8.188,0,11.312l18.344,18.344l-2.344,2.344c-3.123,3.124-3.123,8.188,0,11.312l22.344,22.344l-14.344,14.344
				l11.312,11.312l14.344-14.344l144.688,144.688l-42.344,42.344c-3.123,3.124-3.123,8.188,0,11.312l40,40
				c3.124,3.123,8.188,3.123,11.312,0l14.344-14.344l22.344,22.344c3.124,3.123,8.188,3.123,11.312,0l112-112
				C384.777,250.53,384.777,245.466,381.654,242.342z M35.31,47.998L63.998,19.31l12.688,12.688L47.998,60.686L35.31,47.998z
				 M51.31,79.998L95.998,35.31l16.688,16.688L67.998,96.686L51.31,79.998z M79.31,107.998l44.688-44.688l20.688,20.688
				l-44.688,44.688L79.31,107.998z M111.31,139.998l44.688-44.688l80.688,80.688l-44.688,44.688L111.31,139.998z M203.31,231.998
				l44.688-44.688l20.688,20.688l-44.688,44.688L203.31,231.998z M215.998,340.686l-28.688-28.688l42.344-42.344l56-56
				l42.344-42.344l28.688,28.688L215.998,340.686z M263.998,348.686l-16.688-16.688L347.998,231.31l16.688,16.688L263.998,348.686z"
				/>
			<path d="M381.654,290.342c-3.124-3.123-8.188-3.123-11.312,0l-64,64c-3.178,3.07-3.266,8.134-0.196,11.312
				c3.07,3.178,8.134,3.266,11.312,0.196c0.066-0.064,0.132-0.13,0.196-0.196l64-64C384.777,298.53,384.777,293.466,381.654,290.342
				z"/>
			<path d="M405.654,314.342c-3.124-3.123-8.188-3.123-11.312,0l-64,64c-3.178,3.07-3.266,8.134-0.196,11.312
				c3.07,3.178,8.134,3.266,11.312,0.196c0.066-0.064,0.132-0.13,0.196-0.196l64-64C408.777,322.53,408.777,317.466,405.654,314.342
				z"/>
			<path d="M477.654,450.342c-3.124-3.123-8.188-3.123-11.312,0l-26.344,26.344l-68.688-68.688l8.688-8.688l46.344,46.344
				c3.124,3.123,8.188,3.123,11.312,0l32-32c3.123-3.124,3.123-8.188,0-11.312l-46.344-46.344l6.344-6.344
				c3.07-3.178,2.982-8.242-0.196-11.312c-3.1-2.995-8.016-2.995-11.116,0l-64,64c-3.123,3.124-3.123,8.188,0,11.312l80,80
				c3.124,3.123,8.188,3.123,11.312,0l32-32C480.777,458.53,480.777,453.466,477.654,450.342z M411.998,367.31l40.688,40.688
				l-20.688,20.688l-40.688-40.688L411.998,367.31z"/>
		</g>
	</g>
</g>
<g>
</g>
<g>
</g>
<g>
</g>
<g>
</g>
<g>
</g>
<g>
</g>
<g>
</g>
<g>
</g>
<g>
</g>
<g>
</g>
<g>
</g>
<g>
</g>
<g>
</g>
<g>
</g>
<g>
</g>
</svg>
