<?xml version="1.0" encoding="iso-8859-1"?>
<!-- Generator: Adobe Illustrator 19.0.0, SVG Export Plug-In . SVG Version: 6.00 Build 0)  -->
<svg version="1.1" id="Capa_1" xmlns="http://www.w3.org/2000/svg" xmlns:xlink="http://www.w3.org/1999/xlink" x="0px" y="0px"
	 viewBox="0 0 496 496" style="enable-background:new 0 0 496 496;" xml:space="preserve">
<g>
	<g>
		<g>
			<path d="M440,207.979h-16.4c18.606-24.172,21.636-56.895,7.784-84.072L448,107.291l10.344,10.344
				c3.124,3.123,8.188,3.123,11.312,0l24-24c3.123-3.124,3.123-8.188,0-11.312l-56-56c-3.124-3.123-8.188-3.123-11.312,0l-24,24
				c-3.123,3.124-3.123,8.188,0,11.312l10.344,10.344L396.04,88.627c-22.643-11.53-49.437-11.53-72.08,0l-16.648-16.648
				l10.344-10.344c3.123-3.124,3.123-8.188,0-11.312l-24-24c-3.124-3.123-8.188-3.123-11.312,0l-56,56
				c-3.123,3.124-3.123,8.188,0,11.312l4.232,4.232l-127.456,14.16c-22.031,0.369-39.591,18.527-39.222,40.558
				c0.357,21.3,17.385,38.563,38.678,39.21l88.728,16.184H56c-30.913,0.035-55.965,25.087-56,56v64
				c0.035,30.913,25.087,55.965,56,56h37.52c-22.111,14.625-28.18,44.404-13.555,66.515s44.404,28.18,66.515,13.555
				s28.18-44.404,13.555-66.515c-3.561-5.384-8.171-9.994-13.555-13.555h203.04c-22.111,14.625-28.18,44.404-13.555,66.515
				s44.404,28.18,66.515,13.555s28.18-44.404,13.555-66.515c-3.561-5.384-8.171-9.994-13.555-13.555H440
				c30.913-0.035,55.965-25.087,56-56v-64C495.965,233.066,470.913,208.014,440,207.979z M48,367.179
				c-18.611-3.827-31.976-20.199-32-39.2v-64c0.024-19.001,13.389-35.373,32-39.2V367.179z M401.648,207.979H392v-44.688
				l27.344-27.312c3.065,7.536,4.646,15.593,4.656,23.728C424.014,178.302,415.837,195.96,401.648,207.979z M432,43.291
				l44.688,44.688L464,100.667l-44.688-44.688L432,43.291z M424,83.291l12.688,12.688l-14.152,14.144
				c-3.745-4.685-8.004-8.936-12.696-12.672L424,83.291z M398.4,108.867c4.82,3.617,9.105,7.897,12.728,12.712l-19.432,19.432
				c-0.609-6.577-3.261-12.798-7.584-17.792L398.4,108.867z M360,95.979c8.227,0.003,16.376,1.595,24,4.688l-13.288,13.288
				c-6.898-2.635-14.526-2.635-21.424,0L336,100.667C343.624,97.574,351.773,95.982,360,95.979z M376,143.979v64h-32v-64
				c0-8.837,7.163-16,16-16S376,135.142,376,143.979z M321.6,108.867l14.288,14.312c-4.323,4.994-6.975,11.215-7.584,17.792
				l-19.432-19.392C312.495,116.764,316.78,112.484,321.6,108.867z M328,163.291v44.688h-9.648
				c-14.189-12.019-22.366-29.677-22.352-48.272c0.01-8.135,1.591-16.192,4.656-23.728L328,163.291z M310.16,97.451
				c-4.692,3.736-8.951,7.987-12.696,12.672l-14.152-14.144L296,83.291L310.16,97.451z M288,43.291l12.688,12.688L256,100.667
				l-12.688-12.688L288,43.291z M104,175.979c-13.255,0-24-10.745-24-24s10.745-24,24-24s24,10.745,24,24
				S117.255,175.979,104,175.979z M131.536,180.859c15.924-14.997,16.676-40.065,1.678-55.989c-0.026-0.028-0.052-0.055-0.078-0.083
				l111.904-12.432l5.28,5.28c3.124,3.123,8.188,3.123,11.312,0L272,107.291l16.616,16.616c-13.852,27.177-10.823,59.9,7.784,84.072
				h-15.704L131.536,180.859z M112,454.843c-11.195-2.927-19.937-11.669-22.864-22.864H112V454.843z M112,415.979H89.136
				c2.927-11.195,11.669-19.937,22.864-22.864V415.979z M128,454.843v-22.864h22.864C147.937,443.173,139.195,451.916,128,454.843z
				 M150.864,415.979H128v-22.864C139.195,396.042,147.937,404.784,150.864,415.979z M368,454.843
				c-11.195-2.927-19.937-11.669-22.864-22.864H368V454.843z M368,415.979h-22.864c2.927-11.195,11.669-19.937,22.864-22.864
				V415.979z M384,454.843v-22.864h22.864C403.937,443.173,395.195,451.916,384,454.843z M406.864,415.979H384v-22.864
				C395.195,396.042,403.937,404.784,406.864,415.979z M432,367.979H64v-112h368V367.979z M432,239.979H64v-16h368V239.979z
				 M480,327.979c-0.024,19.001-13.389,35.373-32,39.2v-142.4c18.611,3.827,31.976,20.199,32,39.2V327.979z"/>
			<path d="M88,351.979h320c4.418,0,8-3.582,8-8v-48c0-4.418-3.582-8-8-8H88c-4.418,0-8,3.582-8,8v48
				C80,348.397,83.582,351.979,88,351.979z M96,303.979h304v32H96V303.979z"/>
		</g>
	</g>
</g>
<g>
</g>
<g>
</g>
<g>
</g>
<g>
</g>
<g>
</g>
<g>
</g>
<g>
</g>
<g>
</g>
<g>
</g>
<g>
</g>
<g>
</g>
<g>
</g>
<g>
</g>
<g>
</g>
<g>
</g>
</svg>
