<?xml version="1.0" encoding="iso-8859-1"?>
<!-- Generator: Adobe Illustrator 19.0.0, SVG Export Plug-In . SVG Version: 6.00 Build 0)  -->
<svg version="1.1" id="Capa_1" xmlns="http://www.w3.org/2000/svg" xmlns:xlink="http://www.w3.org/1999/xlink" x="0px" y="0px"
	 viewBox="0 0 496 496" style="enable-background:new 0 0 496 496;" xml:space="preserve">
<g>
	<g>
		<g>
			<path d="M88,248H8c-4.418,0-8,3.582-8,8v112c0,4.418,3.582,8,8,8h16v32H8c-4.418,0-8,3.582-8,8v32c0,4.418,3.582,8,8,8h80
				c4.418,0,8-3.582,8-8v-32c0-4.418-3.582-8-8-8H72v-32h16c4.418,0,8-3.582,8-8V256C96,251.582,92.418,248,88,248z M16,264h36.688
				L16,300.688V264z M80,424v16H16v-16H80z M40,408v-32h16v32H40z M80,360H43.312L80,323.312V360z M80,300.688L20.688,360H16
				v-36.688L75.312,264H80V300.688z"/>
			<path d="M88,104H8c-4.418,0-8,3.582-8,8v112c0,4.418,3.582,8,8,8h80c4.418,0,8-3.582,8-8V112C96,107.582,92.418,104,88,104z
				 M16,120h36.688L16,156.688V120z M80,216H43.312L80,179.312V216z M80,156.688L20.688,216H16v-36.688L75.312,120H80V156.688z"/>
			<path d="M488,248h-80c-4.418,0-8,3.582-8,8v112c0,4.418,3.582,8,8,8h16v32h-16c-4.418,0-8,3.582-8,8v32c0,4.418,3.582,8,8,8h80
				c4.418,0,8-3.582,8-8v-32c0-4.418-3.582-8-8-8h-16v-32h16c4.418,0,8-3.582,8-8V256C496,251.582,492.418,248,488,248z M416,360
				v-36.688L452.688,360H416z M456,376v32h-16v-32H456z M480,424v16h-64v-16H480z M480,360h-4.688L416,300.688V264h4.688
				L480,323.312V360z M480,300.688L443.312,264H480V300.688z"/>
			<path d="M488,104h-80c-4.418,0-8,3.582-8,8v112c0,4.418,3.582,8,8,8h80c4.418,0,8-3.582,8-8V112C496,107.582,492.418,104,488,104
				z M416,216v-36.688L452.688,216H416z M480,216h-4.688L416,156.688V120h4.688L480,179.312V216z M480,156.688L443.312,120H480
				V156.688z"/>
			<path d="M144,256c-0.223-13.032,10.16-23.777,23.193-24.001c2.328-0.04,4.649,0.265,6.888,0.905
				c4.272,1.127,8.649-1.422,9.777-5.694c0.189-0.716,0.278-1.454,0.263-2.194c-0.003-0.342-0.043-0.683-0.12-1.016
				c0-17.673,14.327-32,32-32c6.948,0.027,13.694,2.338,19.2,6.576c3.528,2.66,8.544,1.956,11.204-1.573
				c1.149-1.525,1.715-3.41,1.596-5.315c0.086-17.673,14.483-31.93,32.156-31.844S312.086,174.327,312,192
				c-0.028,7.344-2.617,14.448-7.32,20.088c-2.785,3.43-2.262,8.468,1.168,11.253c1.912,1.552,4.432,2.138,6.832,1.587
				c16.985-4.216,34.172,6.136,38.388,23.121c0.645,2.6,0.958,5.272,0.932,7.951h16c-0.029-24.527-18.519-45.099-42.904-47.736
				c1.93-5.205,2.913-10.713,2.904-16.264c0.013-26.51-21.467-48.01-47.977-48.023c-21.693-0.01-40.697,14.53-46.359,35.471
				c-5.609-2.284-11.608-3.455-17.664-3.448c-23.413,0.029-43.401,16.92-47.336,40c-21.953-0.5-40.155,16.892-40.654,38.845
				c-0.009,0.385-0.012,0.77-0.01,1.155H144z"/>
			<path d="M488,40H8c-4.418,0-8,3.582-8,8v32c0,4.418,3.582,8,8,8h480c4.418,0,8-3.582,8-8V48C496,43.582,492.418,40,488,40z
				 M480,72H16V56h464V72z"/>
			<rect x="136" y="104" width="16" height="16"/>
			<rect x="176" y="120" width="16" height="16"/>
			<rect x="152" y="144" width="16" height="16"/>
			<rect x="128" y="168" width="16" height="16"/>
			<rect x="232" y="104" width="16" height="16"/>
			<rect x="216" y="136" width="16" height="16"/>
			<rect x="280" y="104" width="16" height="16"/>
			<rect x="320" y="128" width="16" height="16"/>
			<rect x="360" y="104" width="16" height="16"/>
			<rect x="360" y="136" width="16" height="16"/>
			<rect x="360" y="168" width="16" height="16"/>
			<path d="M368,304h-35.36l-12.8-57.736c-0.816-3.671-4.079-6.278-7.84-6.264H192c-3.442,0.003-6.496,2.206-7.584,5.472
				L164.904,304H128c-4.418,0-8,3.582-8,8v32c0,4.418,3.582,8,8,8h8v40c0.036,11.381,6.133,21.88,16,27.552V448c0,4.418,3.582,8,8,8
				h48c4.418,0,8-3.582,8-8v-24h64v24c0,4.418,3.582,8,8,8h48c4.418,0,8-3.582,8-8v-28.448c9.867-5.672,15.964-16.171,16-27.552v-40
				h8c4.418,0,8-3.582,8-8v-32C376,307.582,372.418,304,368,304z M197.768,256H305.6l12.448,56H179.096L197.768,256z M140.688,336
				H136v-16h20.688L140.688,336z M200,440h-32v-16h32V440z M328,440h-32v-16h32V440z M344,392c0,8.837-7.163,16-16,16H168
				c-8.837,0-16-7.163-16-16v-44.688L171.312,328h153.376L344,347.312V392z M360,336h-4.688l-16-16H360V336z"/>
			<rect x="216" y="376" width="64" height="16"/>
		</g>
	</g>
</g>
<g>
</g>
<g>
</g>
<g>
</g>
<g>
</g>
<g>
</g>
<g>
</g>
<g>
</g>
<g>
</g>
<g>
</g>
<g>
</g>
<g>
</g>
<g>
</g>
<g>
</g>
<g>
</g>
<g>
</g>
</svg>
