<?xml version="1.0" encoding="iso-8859-1"?>
<!-- Generator: Adobe Illustrator 19.0.0, SVG Export Plug-In . SVG Version: 6.00 Build 0)  -->
<svg version="1.1" id="Capa_1" xmlns="http://www.w3.org/2000/svg" xmlns:xlink="http://www.w3.org/1999/xlink" x="0px" y="0px"
	 viewBox="0 0 496 496" style="enable-background:new 0 0 496 496;" xml:space="preserve">
<g>
	<g>
		<path d="M488,240h-72v-27.888l25.312-4.224c3.858-0.641,6.686-3.977,6.688-7.888v-32c-0.002-4.418-3.585-7.998-8.004-7.996
			c-0.438,0-0.876,0.036-1.308,0.108L416,163.888v-15.776l25.312-4.224c3.858-0.641,6.686-3.977,6.688-7.888v-32
			c-0.002-4.418-3.585-7.998-8.004-7.996c-0.438,0-0.876,0.036-1.308,0.108L416,99.888V84.112l25.312-4.224
			c3.858-0.641,6.686-3.977,6.688-7.888V40c-0.002-4.418-3.585-7.998-8.004-7.996c-0.438,0-0.876,0.036-1.308,0.108L416,35.888V8
			c0-4.418-3.582-8-8-8h-32c-4.418,0-8,3.582-8,8v35.888l-25.312,4.224C338.83,48.753,336.002,52.089,336,56v32c0,4.418,3.582,8,8,8
			c0.44-0.002,0.878-0.039,1.312-0.112L368,92.112v15.776l-25.312,4.224c-3.858,0.641-6.686,3.977-6.688,7.888v32
			c0,4.418,3.582,8,8,8c0.44-0.002,0.878-0.039,1.312-0.112L368,156.112v15.776l-25.312,4.224c-3.858,0.641-6.686,3.977-6.688,7.888
			v32c0,4.418,3.582,8,8,8c0.44-0.002,0.878-0.039,1.312-0.112L368,220.112V240h-72c-4.418,0-8,3.582-8,8v16h-16v-16
			c0-4.418-3.582-8-8-8h-40v-56c0-4.418-3.582-8-8-8h-40v-48c-0.026-26.499-21.501-47.974-48-48H48
			c-26.499,0.026-47.974,21.501-48,48v320c0.026,26.499,21.501,47.974,48,48h80c26.499-0.026,47.974-21.501,48-48v-48h40
			c4.418,0,8-3.582,8-8v-56h40c4.418,0,8-3.582,8-8v-16h16v16c0,4.418,3.582,8,8,8h192c4.418,0,8-3.582,8-8v-80
			C496,243.582,492.418,240,488,240z M64,124.688l-10.344-10.344l-11.312,11.312L64,147.312v25.376l-10.344-10.344l-11.312,11.312
			L64,195.312v25.376l-10.344-10.344l-11.312,11.312L64,243.312v25.376l-10.344-10.344l-11.312,11.312L64,291.312v25.376
			l-10.344-10.344l-11.312,11.312L64,339.312v25.376l-10.344-10.344l-11.312,11.312L64,387.312v25.376l-10.344-10.344
			l-11.312,11.312L64,435.312v25.376l-10.344-10.344l-11.312,11.312L60.688,480H48c-17.673,0-32-14.327-32-32V128
			c0-17.673,14.327-32,32-32h16V124.688z M96,480H80V96h16V480z M160,448c0,17.673-14.327,32-32,32h-12.688l18.344-18.344
			l-11.312-11.312L112,460.688v-25.376l21.656-21.656l-11.312-11.312L112,412.688v-25.376l21.656-21.656l-11.312-11.312L112,364.688
			v-25.376l21.656-21.656l-11.312-11.312L112,316.688v-25.376l21.656-21.656l-11.312-11.312L112,268.688v-25.376l21.656-21.656
			l-11.312-11.312L112,220.688v-25.376l21.656-21.656l-11.312-11.312L112,172.688v-25.376l21.656-21.656l-11.312-11.312L112,124.688
			V96h16c17.673,0,32,14.327,32,32V448z M208,384h-32V192h32V384z M256,320h-32v-64h32V320z M288,296h-16v-16h16V296z M384,16h16
			v22.56l-16,2.664V16z M352,78.552V62.776l80-13.328v15.776L352,78.552z M400,86.776v15.784l-16,2.664V89.44L400,86.776z
			 M352,142.552v-15.776l80-13.328v15.776L352,142.552z M400,150.776v15.784l-16,2.664V153.44L400,150.776z M352,206.552v-15.776
			l80-13.328v15.776L352,206.552z M400,214.776V240h-16v-22.56L400,214.776z M320,320h-16v-64h16V320z M448,320H336v-64h40h72V320z
			 M480,320h-16v-64h16V320z"/>
	</g>
</g>
<g>
</g>
<g>
</g>
<g>
</g>
<g>
</g>
<g>
</g>
<g>
</g>
<g>
</g>
<g>
</g>
<g>
</g>
<g>
</g>
<g>
</g>
<g>
</g>
<g>
</g>
<g>
</g>
<g>
</g>
</svg>
