<?xml version="1.0" encoding="iso-8859-1"?>
<!-- Generator: Adobe Illustrator 19.0.0, SVG Export Plug-In . SVG Version: 6.00 Build 0)  -->
<svg version="1.1" id="Capa_1" xmlns="http://www.w3.org/2000/svg" xmlns:xlink="http://www.w3.org/1999/xlink" x="0px" y="0px"
	 viewBox="0 0 496.263 496.263" style="enable-background:new 0 0 496.263 496.263;" xml:space="preserve">
<g>
	<g>
		<g>
			<path d="M440,384.039c-13.255,0-24,10.745-24,24s10.745,24,24,24s24-10.745,24-24S453.255,384.039,440,384.039z M440,416.039
				c-4.418,0-8-3.582-8-8s3.582-8,8-8s8,3.582,8,8S444.418,416.039,440,416.039z"/>
			<path d="M495.695,400.218c-4.369-30.667-32.771-51.986-63.438-47.617c-11.053,1.575-21.385,6.412-29.673,13.894l-148.368-36
				l134.296-91.856c3.647-2.494,4.583-7.472,2.089-11.119c-0.065-0.095-0.132-0.189-0.201-0.281l-7.92-10.56l25.216-15.128
				c9.532,9.089,24.627,8.73,33.717-0.801c6.28-6.586,8.265-16.172,5.115-24.711H456c4.418,0,8-3.582,8-8v-56h24
				c4.418,0,8-3.582,8-8v-64c0-4.418-3.582-8-8-8h-32c-4.418,0-8,3.582-8,8v24h-48v-24c0-4.418-3.582-8-8-8h-32
				c-4.418,0-8,3.582-8,8v64c-0.004,2.148,0.862,4.205,2.4,5.704c-0.917,1.868-1.579,3.851-1.968,5.896L93.4,304.039h-7.76
				L47.536,197.351c-1.483-4.162-6.058-6.334-10.221-4.852c-0.305,0.109-0.602,0.235-0.891,0.38l-32,16
				c-3.558,1.785-5.262,5.913-4,9.688L29,304.343c-16.394,1.506-28.953,15.233-29,31.696v72c0,4.418,3.582,8,8,8h48.8
				c-4.396,21.65,9.591,42.764,31.24,47.16c21.65,4.396,42.764-9.591,47.16-31.24c1.067-5.253,1.067-10.667,0-15.92h249.44
				c4.369,30.667,32.771,51.986,63.438,47.617C478.745,459.287,500.064,430.885,495.695,400.218z M233.304,325.455l-31.76-7.696
				l156.64-106.8l14.4,19.2L233.304,325.455z M400.328,187.311L372.8,203.815l-6.4-8.576c-2.567-3.42-7.37-4.217-10.904-1.808
				l-14.92,10.168l40-60c1.165-0.26,2.309-0.605,3.424-1.032v25.472c0,4.418,3.582,8,8,8h9.472c-0.948,2.562-1.445,5.268-1.472,8
				C400.036,185.136,400.146,186.229,400.328,187.311z M424,192.039c-4.418,0-8-3.582-8-8s3.582-8,8-8s8,3.582,8,8
				S428.418,192.039,424,192.039z M448,160.039h-48v-48h48V160.039z M368,48.039h16v24c0,4.418,3.582,8,8,8h64c4.418,0,8-3.582,8-8
				v-24h16v48H368V48.039z M376,112.039c4.418,0,8,3.582,8,8s-3.582,8-8,8s-8-3.582-8-8S371.582,112.039,376,112.039z
				 M355.84,132.959c1.952,3.026,4.561,5.575,7.632,7.456l-58.128,87.2l-124.752,85.064l-34.704-8.416
				c-0.619-0.147-1.252-0.222-1.888-0.224h-23.4L355.84,132.959z M17.768,220.087l17.736-8.848l33.144,92.8h-22.88L17.768,220.087z
				 M96,448.039c-13.255,0-24-10.745-24-24s10.745-24,24-24s24,10.745,24,24S109.255,448.039,96,448.039z M384.64,400.039H127.792
				c-7.491-10.037-19.268-15.964-31.792-16c-12.64,0.035-24.513,6.064-32,16.248v-0.248H16v-64c0-8.837,7.163-16,16-16h111.04
				l248.408,60.216C387.943,386.358,385.633,393.072,384.64,400.039z M440,448.039c-22.091,0-40-17.909-40-40
				c0.026-22.08,17.92-39.974,40-40c22.091,0,40,17.909,40,40C480,430.13,462.091,448.039,440,448.039z"/>
			<rect x="128" y="336.039" width="16" height="16"/>
			<rect x="96" y="336.039" width="16" height="16"/>
			<rect x="64" y="336.039" width="16" height="16"/>
		</g>
	</g>
</g>
<g>
</g>
<g>
</g>
<g>
</g>
<g>
</g>
<g>
</g>
<g>
</g>
<g>
</g>
<g>
</g>
<g>
</g>
<g>
</g>
<g>
</g>
<g>
</g>
<g>
</g>
<g>
</g>
<g>
</g>
</svg>
