<?xml version="1.0" encoding="iso-8859-1"?>
<!-- Generator: Adobe Illustrator 19.0.0, SVG Export Plug-In . SVG Version: 6.00 Build 0)  -->
<svg version="1.1" id="Capa_1" xmlns="http://www.w3.org/2000/svg" xmlns:xlink="http://www.w3.org/1999/xlink" x="0px" y="0px"
	 viewBox="0 0 496 496" style="enable-background:new 0 0 496 496;" xml:space="preserve">
<g>
	<g>
		<path d="M495.983,267.391c0.006-0.064,0.011-0.127,0.017-0.191v-38.4c-1.047-12.544-12.065-21.864-24.609-20.817
			c-0.064,0.005-0.127,0.011-0.191,0.017H331.312l80-80H440c2.122,0,4.156-0.844,5.656-2.344l48-48
			c3.123-3.124,3.123-8.188,0-11.312l-64-64c-3.124-3.123-8.188-3.123-11.312,0l-48,48c-1.5,1.5-2.344,3.534-2.344,5.656v28.688
			l-80,80v-33.376l5.656-5.656l32-32c1.5-1.5,2.344-3.534,2.344-5.656V40c0-2.122-0.844-4.156-2.344-5.656l-32-32
			c-3.125-3.124-8.19-3.123-11.314,0.002C280.843,3.846,280,5.879,280,8v28.688L268.688,48h-41.376L216,36.688V8
			c-0.001-4.418-3.583-7.999-8.002-7.998c-2.121,0-4.154,0.843-5.654,2.342l-32,32c-1.5,1.5-2.344,3.534-2.344,5.656v48
			c0,2.122,0.844,4.156,2.344,5.656l32,32l5.656,5.656v33.376l-80-80V56c0-2.122-0.844-4.156-2.344-5.656l-48-48
			c-3.124-3.123-8.188-3.123-11.312,0l-64,64c-3.123,3.124-3.123,8.188,0,11.312l48,48c1.5,1.5,3.534,2.344,5.656,2.344h28.688
			l96,96h-58.8l-46.312-23.16c-1.707-0.851-3.662-1.063-5.512-0.6l-64,16C2.501,217.129,0.001,220.328,0,224v48
			c0.001,3.672,2.501,6.871,6.064,7.76l64,16C70.697,295.919,71.347,296,72,296c1.238,0.011,2.461-0.263,3.576-0.8l46.312-23.2h58.8
			l-96,96H56c-2.122,0-4.156,0.844-5.656,2.344l-48,48c-3.123,3.124-3.123,8.188,0,11.312l64,64c3.124,3.123,8.188,3.123,11.312,0
			l48-48c1.5-1.5,2.344-3.534,2.344-5.656v-28.688l80-80v33.376l-5.656,5.656l-32,32c-1.5,1.5-2.344,3.534-2.344,5.656v48
			c0,2.122,0.844,4.156,2.344,5.656l32,32c3.125,3.124,8.19,3.123,11.314-0.002c1.499-1.5,2.342-3.534,2.342-5.654v-28.688
			L227.312,448h41.376L280,459.312V488c0.001,4.418,3.583,7.999,8.002,7.998c2.121,0,4.154-0.843,5.654-2.342l32-32
			c1.5-1.5,2.344-3.534,2.344-5.656v-48c0-2.122-0.844-4.156-2.344-5.656l-32-32L288,364.688v-33.376l80,80V440
			c0,2.122,0.844,4.156,2.344,5.656l48,48c3.124,3.123,8.188,3.123,11.312,0l64-64c3.123-3.124,3.123-8.188,0-11.312l-48-48
			c-1.5-1.5-3.534-2.344-5.656-2.344h-28.688l-80-80H471.2C483.735,289.153,494.831,279.926,495.983,267.391z M424,19.312
			L476.688,72L464,84.688L411.312,32L424,19.312z M384,59.312l16-16L452.688,96l-16,16h-25.376L384,84.688V59.312z M376,99.312
			L396.688,120l-90.336,90.336L280,236.688L259.312,216L376,99.312z M304,235.312v25.376L291.312,248L304,235.312z M184,84.688
			V43.312l16-16V40c0,2.122,0.844,4.156,2.344,5.656l16,16c1.5,1.5,3.534,2.344,5.656,2.344h48c2.122,0,4.156-0.844,5.656-2.344
			l16-16c1.5-1.5,2.344-3.534,2.344-5.656V27.312l16,16v41.376l-29.656,29.656l-8,8c-1.5,1.5-2.344,3.534-2.344,5.656v52.688l-24,24
			l-24-24V128c0-2.122-0.844-4.156-2.344-5.656l-8-8L184,84.688z M19.312,72L72,19.312L84.688,32L32,84.688L19.312,72z M59.312,112
			l-16-16L96,43.312l16,16v25.376L84.688,112H59.312z M120,256c-1.238-0.014-2.462,0.26-3.576,0.8l-45.352,22.72L16,265.752v-35.504
			l55.072-13.768l45.352,22.72c1.114,0.54,2.338,0.814,3.576,0.8h76.688l8,8l-8,8H120z M72,476.688L19.312,424L32,411.312
			L84.688,464L72,476.688z M112,436.688l-16,16L43.312,400l16-16h25.376L112,411.312V436.688z M120,396.688L99.312,376L216,259.312
			L236.688,280L120,396.688z M312,411.312v41.376l-16,16V456c0-2.122-0.844-4.156-2.344-5.656l-16-16
			c-1.5-1.5-3.534-2.344-5.656-2.344h-48c-2.122,0-4.156,0.844-5.656,2.344l-16,16c-1.5,1.5-2.344,3.534-2.344,5.656v12.688l-16-16
			v-41.376l29.656-29.656l8-8c1.5-1.5,2.344-3.534,2.344-5.656v-52.688l24-24l24,24V368c0,2.122,0.844,4.156,2.344,5.656v0l8,8
			L312,411.312z M476.688,424L424,476.688L411.312,464L464,411.312L476.688,424z M436.688,384l16,16L400,452.688l-16-16v-25.376
			L411.312,384H436.688z M396.688,376L376,396.688L99.312,120L120,99.312l186.336,186.336L396.688,376z M320,272v-48h151.2
			c5.272,0,8.8,2.888,8.8,4.8v38.4c0,1.912-3.496,4.8-8.8,4.8H320z"/>
	</g>
</g>
<g>
</g>
<g>
</g>
<g>
</g>
<g>
</g>
<g>
</g>
<g>
</g>
<g>
</g>
<g>
</g>
<g>
</g>
<g>
</g>
<g>
</g>
<g>
</g>
<g>
</g>
<g>
</g>
<g>
</g>
</svg>
