<?xml version="1.0" encoding="iso-8859-1"?>
<!-- Generator: Adobe Illustrator 19.0.0, SVG Export Plug-In . SVG Version: 6.00 Build 0)  -->
<svg version="1.1" id="Capa_1" xmlns="http://www.w3.org/2000/svg" xmlns:xlink="http://www.w3.org/1999/xlink" x="0px" y="0px"
	 viewBox="0 0 495.998 495.998" style="enable-background:new 0 0 495.998 495.998;" xml:space="preserve">
<g>
	<g>
		<g>
			<path d="M494.979,335.478h0.008c-0.342-3.037-2.385-5.614-5.264-6.64l-27.2-9.672c-2.277-7.656-5.342-15.056-9.144-22.08
				l12.392-26.064c1.313-2.758,0.941-6.024-0.96-8.416c-6.891-8.667-14.747-16.52-23.416-23.408
				c-2.392-1.901-5.658-2.273-8.416-0.96l-26.064,12.392c-7.024-3.802-14.424-6.867-22.08-9.144l-9.672-27.2
				c-1.026-2.879-3.603-4.922-6.64-5.264c-10.97-1.376-22.07-1.376-33.04,0c-3.037,0.342-5.614,2.385-6.64,5.264l-9.672,27.2
				c-7.656,2.277-15.056,5.341-22.08,9.144l-26.064-12.392c-2.758-1.313-6.024-0.941-8.416,0.96
				c-8.667,6.888-16.52,14.741-23.408,23.408c-1.901,2.392-2.273,5.658-0.96,8.416l12.392,26.064
				c-3.802,7.024-6.867,14.424-9.144,22.08l-27.2,9.672c-2.879,1.026-4.922,3.603-5.264,6.64c-1.355,10.972-1.355,22.068,0,33.04
				c0.342,3.037,2.385,5.614,5.264,6.64l27.2,9.672c2.277,7.656,5.342,15.056,9.144,22.08l-12.392,26.064
				c-1.313,2.758-0.941,6.024,0.96,8.416c6.888,8.667,14.741,16.52,23.408,23.408c2.396,1.89,5.656,2.262,8.416,0.96l26.056-12.384
				c7.039,3.795,14.452,6.851,22.12,9.12l9.672,27.2c1.026,2.879,3.603,4.922,6.64,5.264c10.972,1.355,22.068,1.355,33.04,0
				c3.037-0.342,5.614-2.385,6.64-5.264l9.672-27.2c7.658-2.279,15.06-5.343,22.088-9.144l26.056,12.384
				c2.759,1.313,6.024,0.941,8.416-0.96c8.654-6.882,16.497-14.727,23.376-23.384c1.901-2.392,2.273-5.657,0.96-8.416
				l-12.392-26.064c3.802-7.024,6.867-14.424,9.144-22.08l27.2-9.672c2.879-1.026,4.922-3.603,5.264-6.64
				C496.334,357.547,496.334,346.45,494.979,335.478z M479.579,361.782l-26.4,9.376c-2.506,0.893-4.404,2.974-5.064,5.552
				c-2.322,9.063-5.921,17.75-10.688,25.8c-1.361,2.293-1.49,5.113-0.344,7.52l12,25.216c-4.264,4.958-8.896,9.587-13.856,13.848
				l-25.216-12c-2.407-1.146-5.227-1.017-7.52,0.344c-8.05,4.767-16.737,8.366-25.8,10.688c-2.578,0.66-4.659,2.558-5.552,5.064
				l-9.376,26.4c-6.51,0.568-13.058,0.568-19.568,0l-9.376-26.4c-0.893-2.506-2.974-4.404-5.552-5.064
				c-9.063-2.322-17.75-5.921-25.8-10.688c-2.293-1.361-5.113-1.49-7.52-0.344l-25.216,12c-4.96-4.261-9.592-8.89-13.856-13.848
				l12-25.216c1.146-2.407,1.017-5.227-0.344-7.52c-4.767-8.05-8.366-16.737-10.688-25.8c-0.66-2.578-2.558-4.659-5.064-5.552
				l-26.4-9.376c-0.232-3.448-0.376-6.68-0.376-9.784s0.144-6.336,0.424-9.784l26.4-9.376c2.506-0.893,4.404-2.974,5.064-5.552
				c2.322-9.063,5.921-17.75,10.688-25.8c1.361-2.293,1.49-5.113,0.344-7.52l-12-25.216c4.264-4.96,8.896-9.592,13.856-13.856
				l25.216,12c2.407,1.146,5.227,1.017,7.52-0.344c8.05-4.767,16.737-8.366,25.8-10.688c2.578-0.66,4.659-2.558,5.552-5.064
				l9.376-26.4c6.51-0.568,13.058-0.568,19.568,0l9.376,26.4c0.893,2.506,2.974,4.404,5.552,5.064
				c9.063,2.322,17.75,5.921,25.8,10.688c2.293,1.361,5.113,1.49,7.52,0.344l25.216-12c4.96,4.264,9.592,8.896,13.856,13.856
				l-12,25.216c-1.146,2.407-1.017,5.227,0.344,7.52c4.767,8.05,8.366,16.737,10.688,25.8c0.66,2.578,2.558,4.659,5.064,5.552
				l26.4,9.376c0.28,3.448,0.424,6.68,0.424,9.784S479.859,358.334,479.579,361.782L479.579,361.782z"/>
			<path d="M202.003,373.438l-18.104-6.4c-1.486-4.772-3.403-9.399-5.728-13.824l8.232-17.368c1.31-2.756,0.938-6.018-0.96-8.408
				c-4.969-6.258-10.638-11.927-16.896-16.896c-2.39-1.898-5.652-2.27-8.408-0.96l-17.328,8.248
				c-4.425-2.325-9.052-4.242-13.824-5.728l-6.4-18.104c-1.025-2.877-3.598-4.919-6.632-5.264c-7.922-0.984-15.934-0.984-23.856,0
				c-3.034,0.345-5.607,2.387-6.632,5.264l-6.4,18.104c-4.772,1.486-9.399,3.403-13.824,5.728l-17.392-8.232
				c-2.756-1.31-6.018-0.938-8.408,0.96c-6.257,4.964-11.926,10.628-16.896,16.88c-1.898,2.39-2.27,5.652-0.96,8.408l8.248,17.328
				c-2.325,4.425-4.242,9.052-5.728,13.824l-18.104,6.4c-2.877,1.025-4.919,3.598-5.264,6.632c-0.981,7.922-0.981,15.934,0,23.856
				c0.345,3.034,2.387,5.607,5.264,6.632l18.104,6.4c1.486,4.772,3.403,9.399,5.728,13.824l-8.232,17.408
				c-1.31,2.756-0.938,6.018,0.96,8.408c4.964,6.257,10.628,11.926,16.88,16.896c2.39,1.898,5.652,2.27,8.408,0.96l17.328-8.24
				c4.424,2.323,9.052,4.238,13.824,5.72l6.4,18.104c1.025,2.877,3.598,4.919,6.632,5.264c7.922,0.981,15.934,0.981,23.856,0
				c3.034-0.345,5.607-2.387,6.632-5.264l6.4-18.104c4.772-1.482,9.399-3.397,13.824-5.72l17.328,8.24
				c2.756,1.31,6.018,0.938,8.408-0.96c6.258-4.969,11.927-10.638,16.896-16.896c1.898-2.39,2.27-5.652,0.96-8.408l-8.248-17.328
				c2.325-4.425,4.242-9.052,5.728-13.824l18.104-6.4c2.877-1.025,4.919-3.598,5.264-6.632c0.981-7.922,0.981-15.934,0-23.856
				C206.87,377.081,204.86,374.494,202.003,373.438z M191.827,397.198l-17.168,6.104c-2.507,0.89-4.408,2.968-5.072,5.544
				c-1.582,6.183-4.036,12.109-7.288,17.6c-1.361,2.293-1.49,5.113-0.344,7.52l7.808,16.432c-2.315,2.603-4.781,5.069-7.384,7.384
				l-16.408-7.808c-2.407-1.146-5.227-1.017-7.52,0.344c-5.489,3.256-11.416,5.71-17.6,7.288c-2.579,0.661-4.661,2.563-5.552,5.072
				l-6.104,17.168c-3.463,0.232-6.937,0.232-10.4,0l-6.104-17.168c-0.891-2.509-2.973-4.411-5.552-5.072
				c-6.184-1.578-12.111-4.032-17.6-7.288c-2.293-1.361-5.113-1.49-7.52-0.344l-16.416,7.784c-2.594-2.308-5.052-4.766-7.36-7.36
				l7.808-16.408c1.146-2.407,1.017-5.227-0.344-7.52c-3.252-5.491-5.706-11.417-7.288-17.6c-0.664-2.576-2.565-4.654-5.072-5.544
				l-17.168-6.128c-0.112-1.808-0.176-3.536-0.176-5.2s0.064-3.392,0.176-5.2l17.168-6.104c2.507-0.89,4.408-2.968,5.072-5.544
				c1.582-6.183,4.036-12.109,7.288-17.6c1.361-2.293,1.49-5.113,0.344-7.52l-7.808-16.432c2.308-2.594,4.766-5.052,7.36-7.36
				l16.408,7.808c2.407,1.146,5.227,1.017,7.52-0.344c5.491-3.252,11.417-5.706,17.6-7.288c2.576-0.664,4.654-2.565,5.544-5.072
				l6.104-17.168c3.463-0.232,6.937-0.232,10.4,0l6.104,17.168c0.89,2.507,2.968,4.408,5.544,5.072
				c6.183,1.582,12.109,4.036,17.6,7.288c2.293,1.361,5.113,1.49,7.52,0.344l16.456-7.808c2.603,2.315,5.069,4.781,7.384,7.384
				l-7.808,16.408c-1.146,2.407-1.017,5.227,0.344,7.52c3.252,5.491,5.706,11.417,7.288,17.6c0.664,2.576,2.565,4.654,5.072,5.544
				l17.168,6.104c0.112,1.808,0.176,3.536,0.176,5.2S191.939,395.39,191.827,397.198z"/>
			<path d="M104.003,343.998c-26.51,0-48,21.49-48,48c0,26.51,21.49,48,48,48c26.51,0,48-21.49,48-48
				C151.977,365.5,130.502,344.025,104.003,343.998z M104.003,423.998c-17.673,0-32-14.327-32-32c0-17.673,14.327-32,32-32
				s32,14.327,32,32C136.003,409.671,121.676,423.998,104.003,423.998z"/>
			<path d="M352.003,279.998c-39.764,0-72,32.235-72,72c0,39.764,32.236,72,72,72c39.765,0,72-32.236,72-72
				C423.959,312.252,391.749,280.042,352.003,279.998z M352.003,407.998c-30.928,0-56-25.072-56-56c0-30.928,25.072-56,56-56
				c30.928,0,56,25.072,56,56C407.963,382.91,382.915,407.959,352.003,407.998z"/>
			<path d="M218.347,229.654c2.976,2.976,7.75,3.137,10.92,0.368l53.136-46.488c1.222-0.352,2.34-0.998,3.256-1.88l21.656-21.656
				h36.688c2.122,0,4.156-0.844,5.656-2.344l64-64c3.123-3.124,3.123-8.188,0-11.312l-80-80c-3.124-3.123-8.188-3.123-11.312,0
				l-64,64c-1.5,1.5-2.344,3.534-2.344,5.656v36.688l-21.656,21.656c-0.882,0.916-1.528,2.034-1.88,3.256l-46.488,53.136
				c-2.769,3.17-2.608,7.944,0.368,10.92L218.347,229.654z M328.003,19.31l68.688,68.688l-12.688,12.688l-68.688-68.688
				L328.003,19.31z M272.003,75.31l32-32l68.688,68.688l-32,32h-33.376l-35.312-35.312V75.31z M253.859,133.454l10.144-10.144
				l28.688,28.688l-10.144,10.144l-2.712,2.4l-28.352-28.352L253.859,133.454z M240.923,148.23l26.848,26.848l-43.4,37.976
				l-21.424-21.424L240.923,148.23z"/>
			<path d="M191.163,228.422c-2.358-3.954-7.475-5.249-11.429-2.891c-1.189,0.709-2.182,1.702-2.891,2.891l-16,32
				c-0.554,1.111-0.841,2.335-0.84,3.576c0,13.255,10.745,24,24,24s24-10.745,24-24c0.001-1.241-0.286-2.465-0.84-3.576
				L191.163,228.422z M182.411,271.822c-3.148-0.639-5.609-3.1-6.248-6.248l7.84-15.688l7.84,15.688
				C190.964,269.904,186.741,272.701,182.411,271.822z"/>
		</g>
	</g>
</g>
<g>
</g>
<g>
</g>
<g>
</g>
<g>
</g>
<g>
</g>
<g>
</g>
<g>
</g>
<g>
</g>
<g>
</g>
<g>
</g>
<g>
</g>
<g>
</g>
<g>
</g>
<g>
</g>
<g>
</g>
</svg>
