<?xml version="1.0" encoding="iso-8859-1"?>
<!-- Generator: Adobe Illustrator 19.0.0, SVG Export Plug-In . SVG Version: 6.00 Build 0)  -->
<svg version="1.1" id="Capa_1" xmlns="http://www.w3.org/2000/svg" xmlns:xlink="http://www.w3.org/1999/xlink" x="0px" y="0px"
	 viewBox="0 0 496.065 496.065" style="enable-background:new 0 0 496.065 496.065;" xml:space="preserve">
<g>
	<g>
		<g>
			<path d="M77.833,415.448c48.271,5.651,91.984-28.9,97.635-77.171c0.398-3.4,0.597-6.821,0.597-10.245
				c0.079-26.255-11.675-51.148-32-67.768V56.032c0-30.928-25.072-56-56-56c-30.928,0-56,25.072-56,56v204.224
				C8.305,279.648-3.521,310.095,0.921,340.44C6.744,379.909,38.231,410.616,77.833,415.448z M48.065,56.032
				c0.026-22.08,17.92-39.974,40-40c22.08,0.026,39.974,17.92,40,40V212.72l-16,16c-4.482,4.263-11.518,4.263-16,0l-4.688-4.688
				c-10.814-10.301-27.81-10.301-38.624,0l-4.688,4.688V56.032z M45.009,270.432c2.325-1.753,3.499-4.642,3.056-7.52v-11.568l16-16
				c4.482-4.263,11.518-4.263,16,0l4.688,4.688c10.814,10.301,27.81,10.301,38.624,0l4.688-4.688v27.152
				c-0.591,3.015,0.596,6.103,3.056,7.944c18.261,13.499,29.008,34.883,28.944,57.592c0.059,39.764-32.128,72.048-71.892,72.108
				s-72.048-32.128-72.108-71.892C16.031,305.484,26.764,284.045,45.009,270.432z"/>
			<rect x="160.065" y="48.032" width="32" height="16"/>
			<rect x="160.065" y="80.032" width="48" height="16"/>
			<rect x="160.065" y="112.032" width="32" height="16"/>
			<rect x="160.065" y="144.032" width="48" height="16"/>
			<rect x="160.065" y="176.032" width="32" height="16"/>
			<rect x="160.065" y="208.032" width="48" height="16"/>
			<rect x="112.07" y="297.399" transform="matrix(0.7071 0.7071 -0.7071 0.7071 261.4603 8.8313)" width="16" height="45.256"/>
			<rect x="112.066" y="337.404" transform="matrix(0.7071 0.7071 -0.7071 0.7071 289.7466 20.5508)" width="16" height="45.256"/>
			<path d="M211.377,465.408c-19.503,19.499-51.121,19.499-70.624,0l-14.064-14.064c-25.75-25.75-67.498-25.75-93.248,0c0,0,0,0,0,0
				L2.409,482.376l11.312,11.312l31.032-31.032c19.503-19.499,51.121-19.499,70.624,0l14.064,14.064
				c25.75,25.75,67.498,25.75,93.248,0c0,0,0,0,0,0l14.064-14.064l-11.312-11.312L211.377,465.408z"/>
			<path d="M80.065,56.032c0-4.418,3.582-8,8-8v-16c-13.255,0-24,10.745-24,24v16h16V56.032z"/>
			<path d="M488.065,272.032h-48c-4.418,0-8,3.582-8,8v24h-16v-56c0-4.418-3.582-8-8-8h-24v-16h32c4.418,0,8-3.582,8-8v-32
				c0-4.418-3.582-8-8-8h-160c-4.418,0-8,3.582-8,8v32c0,4.418,3.582,8,8,8h32v16h-24c-4.418,0-8,3.582-8,8v32h-16v-32
				c0-4.418-3.582-8-8-8h-32c-4.418,0-8,3.582-8,8v160c0,4.418,3.582,8,8,8h32c4.418,0,8-3.582,8-8v-32h16v32c0,4.418,3.582,8,8,8
				h144c4.418,0,8-3.582,8-8v-56h16v24c0,4.418,3.582,8,8,8h48c4.418,0,8-3.582,8-8v-96
				C496.065,275.614,492.483,272.032,488.065,272.032z M224.065,400.032h-16v-144h16V400.032z M256.065,360.032h-16v-64h16V360.032z
				 M264.065,208.032v-16h144v16H264.065z M368.065,224.032v16h-64v-16H368.065z M400.065,400.032h-128v-144h128V400.032z
				 M432.065,336.032h-16v-16h16V336.032z M480.065,368.032h-32v-80h32V368.032z"/>
		</g>
	</g>
</g>
<g>
</g>
<g>
</g>
<g>
</g>
<g>
</g>
<g>
</g>
<g>
</g>
<g>
</g>
<g>
</g>
<g>
</g>
<g>
</g>
<g>
</g>
<g>
</g>
<g>
</g>
<g>
</g>
<g>
</g>
</svg>
