<?xml version="1.0" encoding="iso-8859-1"?>
<!-- Generator: Adobe Illustrator 19.0.0, SVG Export Plug-In . SVG Version: 6.00 Build 0)  -->
<svg version="1.1" id="Capa_1" xmlns="http://www.w3.org/2000/svg" xmlns:xlink="http://www.w3.org/1999/xlink" x="0px" y="0px"
	 viewBox="0 0 496.007 496.007" style="enable-background:new 0 0 496.007 496.007;" xml:space="preserve">
<g>
	<g>
		<g>
			<path d="M392.003,368.007c36.643-0.053,67.417-27.588,71.528-64h24.472c4.418,0,8-3.582,8-8v-128
				c-0.001-0.448-0.039-0.894-0.112-1.336C478.993,69.705,394.428-0.805,296.003,0.007c-95.863-0.764-178.967,66.174-198.64,160
				h-57.36c-2.122,0-4.156,0.844-5.656,2.344l-32,32c-1.5,1.5-2.344,3.534-2.344,5.656v96c0,4.418,3.582,8,8,8h24.472
				c4.396,39.49,39.973,67.939,79.462,63.542c31.959-3.558,57.677-27.892,62.994-59.606l53.744,24.432l-80,36.352
				c-4.021,1.832-5.795,6.576-3.963,10.597c0.8,1.756,2.207,3.163,3.963,3.963l80,36.352l-62.4,28.368H8.003c-4.418,0-8,3.582-8,8
				v32c0,4.418,3.582,8,8,8h480c4.418,0,8-3.582,8-8v-32c0-4.418-3.582-8-8-8H329.732l-62.4-28.368l80-36.352
				c4.021-1.832,5.795-6.576,3.963-10.597c-0.8-1.756-2.207-3.163-3.963-3.963l-80-36.352l53.744-24.432
				C326.924,342.573,356.883,367.944,392.003,368.007z M392.003,352.007c-30.928,0-56-25.072-56-56c0-30.928,25.072-56,56-56
				c30.928,0,56,25.072,56,56C447.968,326.92,422.917,351.972,392.003,352.007z M104.003,352.007c-30.928,0-56-25.072-56-56
				c0-30.928,25.072-56,56-56c30.928,0,56,25.072,56,56C159.968,326.92,134.917,351.972,104.003,352.007z M480.003,464.007v16h-464
				v-16H480.003z M291.076,448.007h-86.144l43.072-19.576L291.076,448.007z M324.675,376.007l-76.672,34.848l-76.664-34.848
				l76.664-34.848L324.675,376.007z M248.003,323.583l-43.072-19.576h86.144L248.003,323.583z M175.531,288.007
				c-4.546-39.504-40.255-67.843-79.759-63.297c-33.245,3.826-59.472,30.052-63.297,63.297H16.003v-84.688l27.312-27.312h60.688
				c3.903,0,7.236-2.816,7.888-6.664C127.498,80.08,205.39,15.209,296.003,16.007c90.359-0.785,168.104,63.727,184,152.68v119.32
				h-16.472c-4.546-39.504-40.255-67.843-79.759-63.297c-33.245,3.826-59.472,30.052-63.297,63.297H175.531z"/>
			<path d="M104.003,264.007c-17.673,0-32,14.327-32,32c0,17.673,14.327,32,32,32s32-14.327,32-32
				C136.003,278.334,121.677,264.007,104.003,264.007z M104.003,312.007c-8.837,0-16-7.163-16-16s7.163-16,16-16s16,7.163,16,16
				S112.84,312.007,104.003,312.007z"/>
			<path d="M392.003,264.007c-17.673,0-32,14.327-32,32c0,17.673,14.327,32,32,32c17.673,0,32-14.327,32-32
				C424.003,278.334,409.677,264.007,392.003,264.007z M392.003,312.007c-8.837,0-16-7.163-16-16s7.163-16,16-16s16,7.163,16,16
				S400.84,312.007,392.003,312.007z"/>
			<rect x="240.003" y="184.007" width="32" height="16"/>
			<rect x="400.003" y="184.007" width="32" height="16"/>
			<path d="M448.036,160.039c0.001-0.251-0.01-0.502-0.032-0.753c-0.088-0.944-9.976-94.24-134.4-119.12
				c-2.35-0.484-4.793,0.125-6.64,1.656c-1.865,1.513-2.951,3.783-2.96,6.184v112c0,4.418,3.582,8,8,8h128
				C444.422,168.025,448.018,164.458,448.036,160.039z M320.003,152.007V57.959c83.64,20.176,105.08,73.008,110.4,94.048H320.003z"
				/>
			<path d="M280.005,40.005c-0.538,0-1.075,0.054-1.602,0.162c-124.392,24.88-134.28,118.176-134.4,119.12
				c-0.398,4.4,2.847,8.29,7.247,8.688c0.25,0.023,0.501,0.033,0.753,0.032h128c4.418,0,8-3.582,8-8v-112
				C288.004,43.589,284.423,40.006,280.005,40.005z M272.003,152.007h-110.4c5.328-21.064,26.784-73.88,110.4-94.048V152.007z"/>
		</g>
	</g>
</g>
<g>
</g>
<g>
</g>
<g>
</g>
<g>
</g>
<g>
</g>
<g>
</g>
<g>
</g>
<g>
</g>
<g>
</g>
<g>
</g>
<g>
</g>
<g>
</g>
<g>
</g>
<g>
</g>
<g>
</g>
</svg>
