<?xml version="1.0" encoding="iso-8859-1"?>
<!-- Generator: Adobe Illustrator 19.0.0, SVG Export Plug-In . SVG Version: 6.00 Build 0)  -->
<svg version="1.1" id="Capa_1" xmlns="http://www.w3.org/2000/svg" xmlns:xlink="http://www.w3.org/1999/xlink" x="0px" y="0px"
	 viewBox="0 0 496 496" style="enable-background:new 0 0 496 496;" xml:space="preserve">
<g>
	<g>
		<g>
			<path d="M128,112h8v40c0.036,11.381,6.133,21.88,16,27.552V208c0,4.418,3.582,8,8,8h48c4.418,0,8-3.582,8-8v-24h64v24
				c0,4.418,3.582,8,8,8h48c4.418,0,8-3.582,8-8v-28.448c9.867-5.672,15.964-16.171,16-27.552v-40h8c4.418,0,8-3.582,8-8V72
				c0-4.418-3.582-8-8-8h-35.36l-12.8-57.736C319.024,2.593,315.761-0.014,312,0H192c-3.442,0.003-6.496,2.206-7.584,5.472
				L164.904,64H128c-4.418,0-8,3.582-8,8v32C120,108.418,123.582,112,128,112z M200,200h-32v-16h32V200z M328,200h-32v-16h32V200z
				 M360,80v16h-4.688l-16-16H360z M197.768,16H305.6l12.448,56H179.096L197.768,16z M171.312,88h153.376L344,107.312V152
				c0,8.837-7.163,16-16,16H168c-8.837,0-16-7.163-16-16v-44.688L171.312,88z M136,80h20.688l-16,16H136V80z"/>
			<rect x="216" y="136" width="64" height="16"/>
			<path d="M488,48c4.418,0,8-3.582,8-8V8c0-4.418-3.582-8-8-8h-80c-4.418,0-8,3.582-8,8v32c0,4.418,3.582,8,8,8h16v184H280
				c-4.418,0-8,3.582-8,8v32c0,4.418,3.582,8,8,8h120v168H96V280h120c4.418,0,8-3.582,8-8v-32c0-4.418-3.582-8-8-8H72V48h16
				c4.418,0,8-3.582,8-8V8c0-4.418-3.582-8-8-8H8C3.582,0,0,3.582,0,8v32c0,4.418,3.582,8,8,8h16v184H8c-4.418,0-8,3.582-8,8v248
				c0,4.418,3.582,8,8,8h480c4.418,0,8-3.582,8-8V240c0-4.418-3.582-8-8-8h-16V48H488z M16,32V16h64v16H16z M56,48v184H40V48H56z
				 M16,248h192v16H16V248z M16,280h36.688L16,316.688V280z M80,480H43.312L80,443.312V480z M80,420.688L20.688,480H16v-28.688
				l64-64V420.688z M80,364.688l-64,64v-33.376l64-64V364.688z M80,308.688l-64,64v-33.376L75.312,280H80V308.688z M400,480H96v-16
				h304V480z M416,480v-24v-12.688L452.688,480H416z M480,480h-4.688L416,420.688v-33.376l64,64V480z M480,428.688l-64-64v-33.376
				l64,64V428.688z M480,372.688l-64-64V280h4.688L480,339.312V372.688z M480,316.688L443.312,280H480V316.688z M480,248v16H288v-16
				H480z M440,232V48h16v184H440z M416,32V16h64v16H416z"/>
		</g>
	</g>
</g>
<g>
</g>
<g>
</g>
<g>
</g>
<g>
</g>
<g>
</g>
<g>
</g>
<g>
</g>
<g>
</g>
<g>
</g>
<g>
</g>
<g>
</g>
<g>
</g>
<g>
</g>
<g>
</g>
<g>
</g>
</svg>
