<?xml version="1.0" encoding="iso-8859-1"?>
<!-- Generator: Adobe Illustrator 19.0.0, SVG Export Plug-In . SVG Version: 6.00 Build 0)  -->
<svg version="1.1" id="Capa_1" xmlns="http://www.w3.org/2000/svg" xmlns:xlink="http://www.w3.org/1999/xlink" x="0px" y="0px"
	 viewBox="0 0 496 496" style="enable-background:new 0 0 496 496;" xml:space="preserve">
<g>
	<g>
		<g>
			<path d="M349.656,157.656l-3.096-3.096c-1.664-1.755-3.371-3.461-5.12-5.12l-3.096-3.096l-0.144,0.144
				c-51.343-45.983-129.057-45.983-180.4,0l-0.144-0.144l-3.096,3.096c-1.755,1.664-3.461,3.371-5.12,5.12l-3.096,3.096l0.144,0.144
				c-49.985,56.064-45.057,142.033,11.006,192.018c56.064,49.985,142.033,45.057,192.018-11.006
				c45.984-51.576,45.984-129.436,0-181.012L349.656,157.656z M351.376,187.368l-26.952,13.472l7.152,14.32l27.08-13.56
				c3.048,7.219,5.374,14.723,6.944,22.4H336v16h31.592c0.176,2.656,0.408,5.296,0.408,8s-0.232,5.344-0.408,8H336v16h29.6
				c-1.565,7.677-3.885,15.18-6.928,22.4l-27.096-13.6l-7.152,14.32l26.952,13.472c-33.314,57.093-106.604,76.369-163.697,43.055
				c-17.823-10.4-32.655-25.232-43.055-43.055l26.952-13.392l-7.152-14.32l-27.08,13.52c-3.048-7.219-5.374-14.722-6.944-22.4H160
				v-16h-31.592c-0.176-2.656-0.408-5.296-0.408-8c0-2.704,0.232-5.344,0.408-8H160v-16h-29.6c1.565-7.677,3.885-15.18,6.928-22.4
				l27.096,13.6l7.152-14.32l-26.952-13.472c3.811-6.484,8.222-12.596,13.176-18.256l20.544,20.544l11.312-11.312l-20.544-20.544
				c5.66-4.954,11.772-9.365,18.256-13.176l13.472,26.952l14.32-7.152l-13.56-27.12c7.219-3.048,14.722-5.374,22.4-6.944V160h16
				v-31.592c2.656-0.176,5.296-0.408,8-0.408s5.344,0.232,8,0.408V160h16v-29.6c7.677,1.565,15.18,3.885,22.4,6.928l-13.6,27.096
				l14.32,7.152l13.472-26.952c6.484,3.811,12.596,8.222,18.256,13.176l-20.544,20.544l11.312,11.312l20.544-20.544
				C343.128,174.77,347.552,180.882,351.376,187.368z"/>
			<path d="M248,216c-17.673,0-32,14.327-32,32c0.028,5.695,1.595,11.276,4.536,16.152l-42.192,42.192l11.312,11.312l42.192-42.192
				c4.876,2.941,10.457,4.508,16.152,4.536c17.673,0,32-14.327,32-32S265.673,216,248,216z M248,264c-8.837,0-16-7.163-16-16
				s7.163-16,16-16s16,7.163,16,16S256.837,264,248,264z"/>
			<path d="M40,248c0-17.673-14.327-32-32-32H0v16h8c8.837,0,16,7.163,16,16s-7.163,16-16,16H0v16h8C25.673,280,40,265.673,40,248z"
				/>
			<rect x="208" y="312" width="16" height="32"/>
			<rect x="240" y="312" width="16" height="32"/>
			<rect x="272" y="312" width="16" height="32"/>
			<rect x="32" y="312" width="16" height="32"/>
			<rect y="312" width="16" height="32"/>
			<path d="M456,248c0,17.673,14.327,32,32,32h8v-16h-8c-8.837,0-16-7.163-16-16s7.163-16,16-16h8v-16h-8
				C470.327,216,456,230.327,456,248z"/>
			<rect x="448" y="312" width="16" height="32"/>
			<rect x="480" y="312" width="16" height="32"/>
			<path d="M496,96V80c-47.98-0.561-94.504,16.475-130.776,47.888c-65.107-63.852-169.341-63.852-234.448,0
				C94.504,96.475,47.98,79.439,0,80v16c43.936-0.572,86.567,14.931,119.872,43.592c-3.867,4.529-7.493,9.258-10.864,14.168
				C79.26,126.556,40.309,111.635,0,112v16c2.696,0,5.336,0.256,8,0.4V160h16v-29.936c7.888,1.212,15.666,3.061,23.256,5.528
				l-14.4,28.8l14.32,7.152l15.04-30.08c7.363,3.343,14.417,7.329,21.08,11.912l-24.952,24.968l11.312,11.312L96,163.336
				c1.6,1.4,2.968,2.968,4.464,4.432c-27.253,50.017-27.253,110.447,0,160.464C73.473,354.129,37.403,368.407,0,368v16
				c40.312,0.372,79.266-14.553,109.008-41.768c3.369,4.914,6.995,9.646,10.864,14.176C86.567,385.069,43.936,400.572,0,400v16
				c47.981,0.559,94.505-16.474,130.784-47.88c65.101,63.821,169.299,63.821,234.4,0C401.471,399.533,448.008,416.566,496,416v-16
				c-43.936,0.572-86.567-14.931-119.872-43.592c3.869-4.53,7.495-9.262,10.864-14.176C416.734,369.447,455.688,384.372,496,384v-16
				c-37.394,0.401-73.455-13.877-100.44-39.768c27.253-50.017,27.253-110.447,0-160.464c1.496-1.464,2.896-3.032,4.464-4.432
				l26.32,26.32l11.312-11.312l-24.936-24.936c6.663-4.583,13.717-8.569,21.08-11.912l15.04,30.08l14.32-7.152l-14.4-28.8
				c7.584-2.477,15.356-4.337,23.24-5.56V160h16v-31.6c2.664-0.144,5.304-0.4,8-0.4v-16c-40.309-0.365-79.26,14.556-109.008,41.76
				c-3.371-4.91-6.997-9.639-10.864-14.168C409.433,110.931,452.064,95.428,496,96z M400,248c-0.093,83.909-68.091,151.907-152,152
				c-83.947,0-152-68.053-152-152S164.053,96,248,96S400,164.053,400,248z"/>
		</g>
	</g>
</g>
<g>
</g>
<g>
</g>
<g>
</g>
<g>
</g>
<g>
</g>
<g>
</g>
<g>
</g>
<g>
</g>
<g>
</g>
<g>
</g>
<g>
</g>
<g>
</g>
<g>
</g>
<g>
</g>
<g>
</g>
</svg>
