<?xml version="1.0" encoding="iso-8859-1"?>
<!-- Generator: Adobe Illustrator 19.0.0, SVG Export Plug-In . SVG Version: 6.00 Build 0)  -->
<svg version="1.1" id="Capa_1" xmlns="http://www.w3.org/2000/svg" xmlns:xlink="http://www.w3.org/1999/xlink" x="0px" y="0px"
	 viewBox="0 0 496.09 496.09" style="enable-background:new 0 0 496.09 496.09;" xml:space="preserve">
<g>
	<g>
		<g>
			<path d="M288.045,440c0,13.255,10.745,24,24,24s24-10.745,24-24s-10.745-24-24-24S288.045,426.745,288.045,440z M320.045,440
				c0,4.418-3.582,8-8,8s-8-3.582-8-8s3.582-8,8-8S320.045,435.582,320.045,440z"/>
			<path d="M371.397,87.264c2.833-1.307,4.648-4.143,4.648-7.264V56c-0.002-0.86-0.142-1.713-0.416-2.528l-8-24
				c-1.397-4.191-5.928-6.456-10.12-5.059c-0.278,0.093-0.55,0.2-0.816,0.323l-4.648,2.144V8c0-4.418-3.582-8-8-8h-168
				c-13.255,0-24,10.745-24,24v56.8c-18.611,3.827-31.976,20.199-32,39.2v160c0,4.418,3.582,8,8,8h96c4.418,0,8-3.582,8-8V120
				c-0.024-19.001-13.389-35.373-32-39.2V48h72v15.8l-19.352,8.936c-2.833,1.307-4.648,4.143-4.648,7.264v24
				c0.002,0.86,0.142,1.713,0.416,2.528l8,24c1.397,4.191,5.928,6.456,10.12,5.059c0.278-0.093,0.55-0.2,0.816-0.323l4.648-2.144
				v18.68l-19.352,8.936c-2.833,1.308-4.648,4.143-4.648,7.264v24c0.002,0.86,0.142,1.713,0.416,2.528l8,24
				c1.397,4.191,5.928,6.456,10.12,5.059c0.278-0.093,0.55-0.2,0.816-0.323l4.648-2.144v18.68l-19.352,8.936
				c-2.833,1.308-4.648,4.143-4.648,7.264v24c0.002,0.86,0.142,1.713,0.416,2.528l8,24c1.397,4.191,5.928,6.456,10.12,5.059
				c0.278-0.093,0.55-0.2,0.816-0.323l20.648-9.528V320h-16c-4.418,0-8,3.582-8,8v32c0,4.418,3.582,8,8,8h16v21.48
				c-27.944,13.255-39.851,46.653-26.596,74.596c13.255,27.944,46.653,39.851,74.596,26.596
				c27.944-13.255,39.851-46.653,26.596-74.596c-5.534-11.667-14.93-21.062-26.596-26.596V368h16c4.418,0,8-3.582,8-8v-32
				c0-4.418-3.582-8-8-8h-16v-40.416l35.352-16.32c2.833-1.308,4.648-4.143,4.648-7.264v-24c-0.002-0.86-0.142-1.713-0.416-2.528
				l-8-24c-1.397-4.191-5.928-6.456-10.12-5.059c-0.278,0.093-0.55,0.2-0.816,0.323l-4.648,2.144V184.2l19.352-8.936
				c2.833-1.308,4.648-4.143,4.648-7.264v-24c-0.002-0.86-0.142-1.713-0.416-2.528l-8-24c-1.397-4.191-5.928-6.456-10.12-5.059
				c-0.278,0.093-0.55,0.2-0.816,0.323l-4.648,2.144V96.2L371.397,87.264z M288.045,48V16h48v18.264l-48,22.152V48z M168.045,48h16
				v32h-16V48z M216.045,272h-80v-40h80V272z M216.045,168h-16v16h16v32h-80v-32h16v-16h-16v-16h80V168z M216.045,120v16h-80v-16
				c0-13.255,10.745-24,24-24h32C205.3,96,216.045,106.745,216.045,120z M192.045,32h-24v-8c0-4.418,3.582-8,8-8h96v16H192.045z
				 M352.045,440c0,22.091-17.909,40-40,40c-22.091,0-40-17.909-40-40c0-22.091,17.909-40,40-40
				C334.125,400.026,352.018,417.92,352.045,440z M304.045,384.64V368h16v16.64C314.746,383.787,309.344,383.787,304.045,384.64z
				 M344.045,336v16h-64v-16H344.045z M304.045,320v-25.648l16-7.384V320H304.045z M355.245,218.992l4.8,14.304v17.6l-91.2,42.096
				l-4.8-14.288v-17.6L355.245,218.992z M288.045,232.416v-18.68l48-22.152v18.68L288.045,232.416z M355.245,130.992l4.8,14.304
				v17.6l-91.2,42.096l-4.8-14.288v-17.6L355.245,130.992z M288.045,144.416v-18.68l48-22.152v18.68L288.045,144.416z
				 M268.845,116.992l-4.8-14.288v-17.6l91.2-42.096l4.8,14.288v17.6L268.845,116.992z"/>
			<rect x="152.045" y="184" width="16" height="16"/>
			<rect x="168.045" y="168" width="16" height="16"/>
			<rect x="184.045" y="184" width="16" height="16"/>
		</g>
	</g>
</g>
<g>
</g>
<g>
</g>
<g>
</g>
<g>
</g>
<g>
</g>
<g>
</g>
<g>
</g>
<g>
</g>
<g>
</g>
<g>
</g>
<g>
</g>
<g>
</g>
<g>
</g>
<g>
</g>
<g>
</g>
</svg>
