<?xml version="1.0" encoding="iso-8859-1"?>
<!-- Generator: Adobe Illustrator 19.0.0, SVG Export Plug-In . SVG Version: 6.00 Build 0)  -->
<svg version="1.1" id="Capa_1" xmlns="http://www.w3.org/2000/svg" xmlns:xlink="http://www.w3.org/1999/xlink" x="0px" y="0px"
	 viewBox="0 0 496 496" style="enable-background:new 0 0 496 496;" xml:space="preserve">
<g>
	<g>
		<g>
			<path d="M488,304c4.418,0,8-3.582,8-8V8c0-4.418-3.582-8-8-8h-48c-2.122,0-4.156,0.844-5.656,2.344L308.688,128H240V72
				c0-2.122-0.844-4.156-2.344-5.656l-64-64c-3.125-3.124-8.19-3.123-11.314,0.002C160.843,3.846,160.001,5.879,160,8v80H80V8
				c-0.001-4.418-3.583-7.999-8.002-7.998c-2.121,0-4.154,0.843-5.654,2.342l-64,64C0.844,67.844,0,69.878,0,72v64
				c0,2.122,0.844,4.156,2.344,5.656L64,203.312V488c0,4.418,3.582,8,8,8h96c4.418,0,8-3.582,8-8V256h24c4.418,0,8-3.582,8-8
				c0-30.928,25.072-56,56-56c30.928,0,56,25.072,56,56c0,4.418,3.582,8,8,8h8v40c0,4.418,3.582,8,8,8h88v48h-8
				c-4.418,0-8,3.582-8,8v128c0,4.418,3.582,8,8,8h64c4.418,0,8-3.582,8-8V360c0-4.418-3.582-8-8-8h-8v-48H488z M480,128h-64V91.312
				L459.312,48H480V128z M160,480h-48V184c0-2.122-0.844-4.156-2.344-5.656l-48-48l-11.312,11.312L96,187.312V480H80V200
				c0-2.122-0.844-4.156-2.344-5.656L16,132.688V75.312l48-48V96c0,4.418,3.582,8,8,8h96c4.418,0,8-3.582,8-8V27.312l48,48V128h-24
				c-2.122,0-4.156,0.844-5.656,2.344l-48,48c-1.5,1.5-2.344,3.534-2.344,5.656v64c0,4.418,3.582,8,8,8h8V480z M335.552,240
				c-4.116-36.419-34.901-63.955-71.552-64c-36.651,0.045-67.436,27.581-71.552,64H160v-52.688L203.312,144H312
				c2.122,0,4.156-0.844,5.656-2.344L443.312,16H480v16h-24c-2.122,0-4.156,0.844-5.656,2.344l-48,48
				c-1.5,1.5-2.344,3.534-2.344,5.656v48c0,4.418,3.582,8,8,8h72v96H335.552z M432,368h8h12.688L432,388.688V368z M448,352v-48h16
				v48H448z M480,480h-20.688L480,459.312V480z M480,436.688L436.688,480H432v-20.688l48-48V436.688z M480,388.688l-48,48v-25.376
				L475.312,368H480V388.688z M352,288v-32h128v32H352z"/>
			<path d="M288,232c0-13.255-10.745-24-24-24c-13.255,0-24,10.745-24,24s10.745,24,24,24C277.255,256,288,245.255,288,232z
				 M256,232c0-4.418,3.582-8,8-8s8,3.582,8,8s-3.582,8-8,8S256,236.418,256,232z"/>
			<path d="M306.344,343.032c-4.489-4.518-10.599-7.05-16.968-7.032h-2.752c-5.428,0.021-10.686,1.901-14.896,5.328
				C270.4,329.215,260.185,320.033,248,320h-32c-13.255,0-24,10.745-24,24v128c0,13.255,10.745,24,24,24h32
				c13.255,0,24-10.745,24-24v-44.688l61.656,61.656c4.489,4.518,10.599,7.05,16.968,7.032h2.752
				c6.369,0.018,12.479-2.514,16.968-7.032l22.624-22.624c4.52-4.491,7.052-10.605,7.032-16.976v-2.736
				c0.02-6.371-2.512-12.485-7.032-16.976L306.344,343.032z M256,388.688l-13.656,13.656l11.312,11.312l2.344-2.344v25.376
				l-13.656,13.656l11.312,11.312l2.344-2.344V472c0,4.418-3.582,8-8,8h-32c-4.418,0-8-3.582-8-8v-12.688l2.344,2.344l11.312-11.312
				L208,436.688v-25.376l2.344,2.344l11.312-11.312L208,388.688v-25.376l2.344,2.344l11.312-11.312l-13.096-13.096
				c1.132-3.138,4.104-5.234,7.44-5.248h32c3.336,0.014,6.308,2.11,7.44,5.248l-13.096,13.096l11.312,11.312l2.344-2.344V388.688z
				 M384,449.368c0.002,2.124-0.842,4.162-2.344,5.664l-22.624,22.624c-1.504,1.494-3.536,2.336-5.656,2.344h-2.752
				c-2.12-0.008-4.152-0.85-5.656-2.344L339.312,472H352v-16h-28.688l-16-16H320v-16h-28.688l-16-16H288v-16h-16v-28.688
				l8.968-8.968c1.504-1.494,3.536-2.336,5.656-2.344h2.752c2.12,0.008,4.152,0.85,5.656,2.344l0.968,0.968V384h16v-12.688l16,16
				V416h16v-12.688l16,16V448h16v-12.688l5.656,5.656c1.502,1.502,2.346,3.54,2.344,5.664V449.368z"/>
		</g>
	</g>
</g>
<g>
</g>
<g>
</g>
<g>
</g>
<g>
</g>
<g>
</g>
<g>
</g>
<g>
</g>
<g>
</g>
<g>
</g>
<g>
</g>
<g>
</g>
<g>
</g>
<g>
</g>
<g>
</g>
<g>
</g>
</svg>
