<?xml version="1.0" encoding="iso-8859-1"?>
<!-- Generator: Adobe Illustrator 19.0.0, SVG Export Plug-In . SVG Version: 6.00 Build 0)  -->
<svg version="1.1" id="Capa_1" xmlns="http://www.w3.org/2000/svg" xmlns:xlink="http://www.w3.org/1999/xlink" x="0px" y="0px"
	 viewBox="0 0 496 496" style="enable-background:new 0 0 496 496;" xml:space="preserve">
<g>
	<g>
		<g>
			<path d="M488,208h-72v-24c0-4.418-3.582-8-8-8h-48c-4.418,0-8,3.582-8,8v24H144v-24c0-4.418-3.582-8-8-8H88c-4.418,0-8,3.582-8,8
				v24H8c-4.418,0-8,3.582-8,8v32c0,4.418,3.582,8,8,8h8v192H8c-4.418,0-8,3.582-8,8v32c0,4.418,3.582,8,8,8h480
				c4.418,0,8-3.582,8-8v-32c0-4.418-3.582-8-8-8h-8V256h8c4.418,0,8-3.582,8-8v-32C496,211.582,492.418,208,488,208z M368,192h32
				v16h-32V192z M96,192h32v16H96V192z M480,480H16v-16h464V480z M32,448V256h16v192H32z M64,448V256h368v192H64z M448,448V256h16
				v192H448z M480,240H16v-16h464V240z"/>
			<path d="M280,64h8v56c0.026,22.08,17.92,39.974,40,40c2.122,0,4.156-0.844,5.656-2.344l16-16c1.5-1.5,2.344-3.534,2.344-5.656
				v-16c0-2.122-0.844-4.156-2.344-5.656L336,100.688v-9.376l13.656-13.656c1.5-1.5,2.344-3.534,2.344-5.656v-8h8
				c4.418,0,8-3.582,8-8V8c0-4.418-3.582-8-8-8h-80c-4.418,0-8,3.582-8,8v48C272,60.418,275.582,64,280,64z M336,68.688
				l-13.656,13.656c-1.5,1.5-2.344,3.534-2.344,5.656v16c0,2.122,0.844,4.156,2.344,5.656L336,123.312v9.376L324.888,143.8
				c-11.951-1.563-20.889-11.747-20.888-23.8V64h32V68.688z M288,16h64v32h-64V16z"/>
			<path d="M488,0h-80c-4.418,0-8,3.582-8,8v48c0,4.418,3.582,8,8,8h8v8c0,2.122,0.844,4.156,2.344,5.656L432,91.312v9.376
				l-13.656,13.656c-1.5,1.5-2.344,3.534-2.344,5.656v16c0,2.122,0.844,4.156,2.344,5.656l16,16c1.5,1.5,3.534,2.344,5.656,2.344
				c22.08-0.026,39.974-17.92,40-40V64h8c4.418,0,8-3.582,8-8V8C496,3.582,492.418,0,488,0z M464,120
				c0.001,12.053-8.937,22.237-20.888,23.8L432,132.688v-9.376l13.656-13.656c1.5-1.5,2.344-3.534,2.344-5.656V88
				c0-2.122-0.844-4.156-2.344-5.656L432,68.688V64h32V120z M480,48h-64V16h64V48z"/>
			<path d="M8,64h8v56c0.026,22.08,17.92,39.974,40,40c2.122,0,4.156-0.844,5.656-2.344l16-16c1.5-1.5,2.344-3.534,2.344-5.656v-16
				c0-2.122-0.844-4.156-2.344-5.656L64,100.688v-9.376l13.656-13.656C79.156,76.156,80,74.122,80,72v-8h8c4.418,0,8-3.582,8-8V8
				c0-4.418-3.582-8-8-8H8C3.582,0,0,3.582,0,8v48C0,60.418,3.582,64,8,64z M64,68.688L50.344,82.344C48.844,83.844,48,85.878,48,88
				v16c0,2.122,0.844,4.156,2.344,5.656L64,123.312v9.376L52.888,143.8C40.937,142.237,31.999,132.053,32,120V64h32V68.688z M16,16
				h64v32H16V16z"/>
			<path d="M136,64h8v8c0,2.122,0.844,4.156,2.344,5.656L160,91.312v9.376l-13.656,13.656c-1.5,1.5-2.344,3.534-2.344,5.656v16
				c0,2.122,0.844,4.156,2.344,5.656l16,16c1.5,1.5,3.534,2.344,5.656,2.344c22.08-0.026,39.974-17.92,40-40V64h8
				c4.418,0,8-3.582,8-8V8c0-4.418-3.582-8-8-8h-80c-4.418,0-8,3.582-8,8v48C128,60.418,131.582,64,136,64z M192,120
				c0.001,12.053-8.937,22.237-20.888,23.8L160,132.688v-9.376l13.656-13.656c1.5-1.5,2.344-3.534,2.344-5.656V88
				c0-2.122-0.844-4.156-2.344-5.656L160,68.688V64h32V120z M144,16h64v32h-64V16z"/>
			<rect x="80" y="336" width="48" height="16"/>
			<polygon points="400,320 384,320 384,336 368,336 368,352 384,352 384,368 400,368 400,352 416,352 416,336 400,336 			"/>
			<path d="M312,336h-46.4l44.392-50.728c2.912-3.323,2.578-8.377-0.745-11.289c-1.452-1.273-3.316-1.977-5.247-1.983h-64
				c-2.736-0.001-5.283,1.396-6.752,3.704l-56,88c-2.373,3.727-1.274,8.672,2.453,11.045c1.285,0.818,2.776,1.252,4.299,1.251
				h34.208l-25.152,44c-2.19,3.837-0.856,8.723,2.981,10.914c2.709,1.547,6.07,1.377,8.611-0.434l112-80
				c3.579-2.591,4.38-7.593,1.789-11.171C316.941,337.243,314.55,336.014,312,336z M225.064,396.272L238.944,372
				c2.209-3.826,0.898-8.719-2.928-10.928c-1.221-0.705-2.606-1.075-4.016-1.072h-33.432l45.824-72H286.4l-44.392,50.728
				c-2.912,3.323-2.578,8.378,0.745,11.289c1.452,1.273,3.316,1.977,5.247,1.983h39.04L225.064,396.272z"/>
		</g>
	</g>
</g>
<g>
</g>
<g>
</g>
<g>
</g>
<g>
</g>
<g>
</g>
<g>
</g>
<g>
</g>
<g>
</g>
<g>
</g>
<g>
</g>
<g>
</g>
<g>
</g>
<g>
</g>
<g>
</g>
<g>
</g>
</svg>
