<?xml version="1.0" encoding="iso-8859-1"?>
<!-- Generator: Adobe Illustrator 19.0.0, SVG Export Plug-In . SVG Version: 6.00 Build 0)  -->
<svg version="1.1" id="Capa_1" xmlns="http://www.w3.org/2000/svg" xmlns:xlink="http://www.w3.org/1999/xlink" x="0px" y="0px"
	 viewBox="0 0 496 496" style="enable-background:new 0 0 496 496;" xml:space="preserve">
<g>
	<g>
		<g>
			<path d="M365.656,314.344l-24-24c-3.124-3.123-8.188-3.123-11.312,0L328,292.688l-18.344-18.344
				c-3.124-3.123-8.188-3.123-11.312,0l-24,24c-3.123,3.124-3.123,8.188,0,11.312L292.688,328l-2.344,2.344
				c-3.123,3.124-3.123,8.188,0,11.312l24,24c3.124,3.123,8.188,3.123,11.312,0l40-40
				C368.779,322.532,368.779,317.468,365.656,314.344z M291.312,304L304,291.312L316.688,304L304,316.688L291.312,304z M320,348.688
				L307.312,336L336,307.312L348.688,320L320,348.688z"/>
			<path d="M384,360v-16h-8c-2.122,0-4.156,0.844-5.656,2.344l-24,24c-3.123,3.124-3.123,8.188,0,11.312L364.688,400l-2.344,2.344
				c-3.123,3.124-3.123,8.188,0,11.312l24,24c3.124,3.123,8.188,3.123,11.312,0l40-40c3.123-3.124,3.123-8.188,0-11.312l-24-24
				c-3.124-3.123-8.188-3.123-11.312,0L376,388.688L363.312,376l16-16H384z M408,379.312L420.688,392L392,420.688L379.312,408
				L408,379.312z"/>
			<path d="M493.656,314.344l-104-104c-1.5-1.5-3.534-2.344-5.656-2.344h-64c-2.122,0-4.156,0.844-5.656,2.344L292,232.688
				l-94.344-94.344c-1.5-1.5-3.534-2.344-5.656-2.344h-20.688L160,124.688V104c0-2.122-0.844-4.156-2.344-5.656l-24-24
				c-1.5-1.5-3.534-2.344-5.656-2.344h-20.688L104,68.688V32c0-2.122-0.844-4.156-2.344-5.656l-24-24C76.156,0.844,74.122,0,72,0H24
				c-2.122,0-4.156,0.844-5.656,2.344l-16,16C0.844,19.844,0,21.878,0,24v48c0,2.122,0.844,4.156,2.344,5.656l24,24
				c1.5,1.5,3.534,2.344,5.656,2.344h36.688L72,107.312V128c0,2.122,0.844,4.156,2.344,5.656l24,24c1.5,1.5,3.534,2.344,5.656,2.344
				h20.688L136,171.312V192c0,2.122,0.844,4.156,2.344,5.656L232.688,292l-22.344,22.344c-1.5,1.5-2.344,3.534-2.344,5.656v64
				c0,2.122,0.844,4.156,2.344,5.656l104,104c1.5,1.5,3.534,2.344,5.656,2.344h64c2.122,0,4.156-0.844,5.656-2.344l104-104
				c1.5-1.5,2.344-3.534,2.344-5.656v-64C496,317.878,495.156,315.844,493.656,314.344z M152,188.688V168
				c0-2.122-0.844-4.156-2.344-5.656l-16-16c-1.5-1.5-3.534-2.344-5.656-2.344h-20.688L88,124.688V104
				c0-2.122-0.844-4.156-2.344-5.656l-8-8C76.156,88.844,74.122,88,72,88H35.312L16,68.688V27.312L27.312,16h41.376L88,35.312V72
				c0,2.122,0.844,4.156,2.344,5.656l8,8c1.5,1.5,3.534,2.344,5.656,2.344h20.688L144,107.312V128c0,2.122,0.844,4.156,2.344,5.656
				l16,16c1.5,1.5,3.534,2.344,5.656,2.344h20.688l92,92L244,280.688L152,188.688z M480,380.688L380.688,480h-57.376L224,380.688
				v-57.376L323.312,224h57.376L480,323.312V380.688z"/>
			<path d="M482.344,277.656l11.312-11.312l-88-88c-1.5-1.5-3.534-2.344-5.656-2.344h-80v16h76.688L482.344,277.656z"/>
		</g>
	</g>
</g>
<g>
</g>
<g>
</g>
<g>
</g>
<g>
</g>
<g>
</g>
<g>
</g>
<g>
</g>
<g>
</g>
<g>
</g>
<g>
</g>
<g>
</g>
<g>
</g>
<g>
</g>
<g>
</g>
<g>
</g>
</svg>
