<?xml version="1.0" encoding="iso-8859-1"?>
<!-- Generator: Adobe Illustrator 19.0.0, SVG Export Plug-In . SVG Version: 6.00 Build 0)  -->
<svg version="1.1" id="Capa_1" xmlns="http://www.w3.org/2000/svg" xmlns:xlink="http://www.w3.org/1999/xlink" x="0px" y="0px"
	 viewBox="0 0 496.004 496.004" style="enable-background:new 0 0 496.004 496.004;" xml:space="preserve">
<g>
	<g>
		<g>
			<path d="M495.539,445.314l-40-112c-1.136-3.186-4.154-5.313-7.536-5.312h-40v-16h40c4.418,0,8-3.582,8-8v-256
				c0-4.418-3.582-8-8-8h-400c-4.418,0-8,3.582-8,8v256c0,4.418,3.582,8,8,8h40v16h-40c-3.382,0-6.4,2.126-7.536,5.312l-40,112
				c-1.484,4.161,0.685,8.738,4.847,10.223c0.863,0.308,1.773,0.465,2.689,0.465h480c4.418,0.001,8-3.581,8.001-7.999
				C496.005,447.087,495.847,446.177,495.539,445.314z M56.003,296.002v-240h384v240H56.003z M392.003,312.002v16h-288v-16H392.003z
				 M53.643,344.002h388.76l11.432,32H42.211L53.643,344.002z M19.355,440.002l17.144-48h423.008l17.144,48H19.355z"/>
			<rect x="192.003" y="408.002" width="112" height="16"/>
			<path d="M392.003,152.002h-32c-4.418,0-8,3.582-8,8v8h-16v-8c0-4.418-3.582-8-8-8h-40v-16h8c4.418,0,8-3.582,8-8v-32
				c0-4.418-3.582-8-8-8h-96c-4.418,0-8,3.582-8,8v32c0,4.418,3.582,8,8,8h8v16h-40c-4.418,0-8,3.582-8,8v8h-16v-8
				c0-4.418-3.582-8-8-8h-32c-4.418,0-8,3.582-8,8v96c0,4.418,3.582,8,8,8h32c4.418,0,8-3.582,8-8v-8h16v8c0,4.418,3.582,8,8,8h160
				c4.418,0,8-3.582,8-8v-8h16v8c0,4.418,3.582,8,8,8h32c4.418,0,8-3.582,8-8v-96C400.003,155.584,396.422,152.002,392.003,152.002z
				 M128.003,248.002h-16v-80h16V248.002z M160.003,232.002h-16v-48h16V232.002z M208.003,104.002h80v16h-80V104.002z
				 M272.003,136.002v16h-48v-16H272.003z M320.003,248.002h-144v-80h144V248.002z M352.003,232.002h-16v-48h16V232.002z
				 M384.003,248.002h-16v-80h16V248.002z"/>
		</g>
	</g>
</g>
<g>
</g>
<g>
</g>
<g>
</g>
<g>
</g>
<g>
</g>
<g>
</g>
<g>
</g>
<g>
</g>
<g>
</g>
<g>
</g>
<g>
</g>
<g>
</g>
<g>
</g>
<g>
</g>
<g>
</g>
</svg>
